<?xml version="1.0" encoding="UTF-8"?>
<svg id="Layer_1" data-name="Layer 1" xmlns="http://www.w3.org/2000/svg" viewBox="0 0 943.84 418.42">
  <defs>
    <style>
      .cls-1 {
        fill: #fff;
        stroke-width: 0px;
      }
    </style>
  </defs>
  <g>
    <path class="cls-1" d="M188.15.59v33.57h-77.29v154.58h-33.57V34.16H0V.59h188.15Z"/>
    <path class="cls-1" d="M343.22,188.68h-37.67l-17.22-33.65-41.03-80.6-41.03,80.6-17.22,33.65h-37.67l17.1-33.65L247.31.43l78.81,154.61,17.1,33.65Z"/>
    <path class="cls-1" d="M489.16,52.3v-1c0-9.5-7.83-17.22-17.33-17.22h-76.35c-9.5,0-17.22,7.72-17.22,17.22v1c0,9.5,7.72,17.22,17.22,17.22h67.63c17.44,0,33.09,7.49,43.93,19.45.89.78,1.56,1.68,2.24,2.57,8.39,10.28,13.41,23.36,13.41,37.56,0,32.87-26.72,59.47-59.58,59.47h-58.91c-32.87,0-59.47-26.61-59.47-59.47h33.54c0,14.31,11.63,25.93,25.94,25.93h58.91c14.31,0,26.05-11.63,26.05-25.93s-11.74-25.94-26.05-25.94h-67.63c-13.75,0-26.05-5.36-35.1-14.2-2.46-2.35-4.7-4.92-6.6-7.83-5.7-8.16-9.05-18.11-9.05-28.84v-1c0-28.06,22.69-50.87,50.75-50.87h76.35c28.06,0,50.86,22.81,50.86,50.87v1h-33.54Z"/>
    <path class="cls-1" d="M655.5,75.78l81.61,112.57h-41.47l-64.95-89.77-47.51,43.37v46.39h-33.54V.21h33.54v96.25l27.61-25.26,24.93-22.81L688.25.32h49.75l-82.5,75.46Z"/>
  </g>
  <g>
    <path class="cls-1" d="M210.03,212.45l-18.71,36.81-86.22,169.15L18.87,249.26.16,212.45h41.21l18.83,36.81,44.89,88.18,44.89-88.18,18.83-36.81h41.21Z"/>
    <path class="cls-1" d="M363.31,418.36h-41.21l-18.84-36.81-44.89-88.18-44.89,88.18-18.83,36.81h-41.21l18.71-36.81,86.22-169.15,86.23,169.15,18.71,36.81Z"/>
    <path class="cls-1" d="M564.45,212.4v102.98c0,56.87-46.11,102.98-102.98,102.98s-102.98-46.11-102.98-102.98v-102.98h36.69v102.98c0,36.57,29.72,66.29,66.29,66.29s66.29-29.72,66.29-66.29v-102.98h36.7Z"/>
    <path class="cls-1" d="M763.72,381.55v36.69h-104.33c-10.39,0-20.18-2.45-28.86-6.73-13.09-6.36-23.61-16.88-29.84-29.97-4.4-8.68-6.85-18.47-6.85-28.86v-140.28h36.69v143.95c1.71,13.09,12.11,23.48,25.2,25.19h107.99Z"/>
    <path class="cls-1" d="M943.84,212.57v36.73h-84.56v169.12h-36.73v-169.12h-84.56v-36.73h205.85Z"/>
  </g>
  <rect class="cls-1" x="758" y="80.73" width="165.26" height="108.27" rx="20.26" ry="20.26"/>
  <path class="cls-1" d="M840.63,0c-35.67,0-64.58,28.91-64.58,64.58h6.18c8.42,0,16.08-5.25,18.75-13.24,5.54-16.59,21.2-28.55,39.65-28.55s34.11,11.96,39.65,28.55c2.67,7.99,10.33,13.24,18.75,13.24h6.18c0-35.67-28.91-64.58-64.58-64.58Z"/>
</svg>